<svg width="240" height="240" viewBox="0 0 240 240" fill="none" xmlns="http://www.w3.org/2000/svg">
<path d="M191.437 56.4375L56.4375 191.437C55.3932 192.482 53.9768 193.068 52.5 193.068C51.0232 193.068 49.6068 192.482 48.5625 191.437C47.5182 190.393 46.9315 188.977 46.9315 187.5C46.9315 186.023 47.5182 184.607 48.5625 183.562L183.562 48.5625C184.607 47.5182 186.023 46.9315 187.5 46.9315C188.977 46.9315 190.393 47.5182 191.437 48.5625C192.482 49.6068 193.068 51.0231 193.068 52.5C193.068 53.9768 192.482 55.3932 191.437 56.4375ZM48.75 93.75C45.7794 90.8042 43.4216 87.2992 41.8125 83.4375C40.2034 79.5757 39.375 75.4336 39.375 71.25C39.375 67.0664 40.2034 62.9243 41.8125 59.0625C43.4216 55.2007 45.7794 51.6958 48.75 48.75C51.7022 45.7907 55.2091 43.4428 59.07 41.8408C62.9309 40.2388 67.0699 39.4142 71.25 39.4142C75.4301 39.4142 79.5691 40.2388 83.43 41.8408C87.2909 43.4428 90.7978 45.7907 93.75 48.75C98.1921 53.2075 101.215 58.8801 102.439 65.0529C103.662 71.2258 103.031 77.6227 100.625 83.4375C98.219 89.2523 94.1455 94.2248 88.918 97.7283C83.6905 101.232 77.5429 103.11 71.25 103.125C67.0641 103.141 62.9173 102.319 59.0534 100.709C55.1895 99.0994 51.6864 96.7332 48.75 93.75ZM50.625 71.25C50.6385 74.6358 51.4853 77.9663 53.0907 80.9473C54.6962 83.9284 57.0108 86.4684 59.8303 88.343C62.6499 90.2177 65.8876 91.3694 69.2576 91.6964C72.6276 92.0235 76.0264 91.5158 79.1537 90.2183C82.2811 88.9208 85.041 86.8733 87.1896 84.2565C89.3383 81.6398 90.8097 78.5343 91.474 75.2143C92.1383 71.8942 91.975 68.4617 90.9985 65.2197C90.022 61.9777 88.2624 59.0259 85.875 56.625C81.9796 52.7777 76.725 50.6202 71.25 50.6202C65.7749 50.6202 60.5204 52.7777 56.625 56.625C52.7794 60.5212 50.6237 65.7756 50.625 71.25ZM200.625 168.75C200.638 173.997 199.355 179.167 196.89 183.8C194.425 188.432 190.855 192.385 186.496 195.306C182.137 198.228 177.124 200.028 171.902 200.547C166.681 201.066 161.411 200.287 156.563 198.281C151.714 196.275 147.435 193.102 144.107 189.045C140.779 184.988 138.504 180.172 137.483 175.025C136.463 169.878 136.729 164.558 138.259 159.538C139.788 154.519 142.533 149.954 146.25 146.25C149.202 143.291 152.709 140.943 156.57 139.341C160.431 137.739 164.57 136.914 168.75 136.914C172.93 136.914 177.069 137.739 180.93 139.341C184.791 140.943 188.298 143.291 191.25 146.25C194.242 149.18 196.614 152.682 198.224 156.547C199.835 160.413 200.651 164.563 200.625 168.75ZM189.375 168.75C189.376 163.276 187.221 158.021 183.375 154.125C179.48 150.278 174.225 148.12 168.75 148.12C163.275 148.12 158.02 150.278 154.125 154.125C151.687 156.524 149.881 159.489 148.868 162.756C147.855 166.023 147.666 169.49 148.319 172.847C148.972 176.205 150.445 179.348 152.609 181.998C154.772 184.647 157.558 186.719 160.717 188.03C163.876 189.341 167.311 189.849 170.714 189.509C174.118 189.17 177.384 187.993 180.222 186.084C183.06 184.174 185.381 181.592 186.978 178.568C188.575 175.543 189.399 172.17 189.375 168.75Z" fill="white"/>
</svg>
