<svg width="40" height="40" viewBox="0 0 40 40" fill="none" xmlns="http://www.w3.org/2000/svg">
<path d="M36.875 20C36.875 16.6624 35.8853 13.3998 34.0311 10.6248C32.1768 7.84968 29.5413 5.68677 26.4578 4.40954C23.3743 3.13231 19.9813 2.79813 16.7079 3.44926C13.4344 4.10038 10.4276 5.70757 8.06758 8.06758C5.70757 10.4276 4.10038 13.4344 3.44926 16.7079C2.79813 19.9813 3.13231 23.3743 4.40954 26.4578C5.68677 29.5413 7.84968 32.1768 10.6248 34.0311C13.3998 35.8853 16.6624 36.875 20 36.875C24.4743 36.8709 28.7641 35.0916 31.9279 31.9279C35.0916 28.7641 36.8709 24.4743 36.875 20ZM21.875 32.9844V24.375H25C25.4973 24.375 25.9742 24.1775 26.3258 23.8258C26.6775 23.4742 26.875 22.9973 26.875 22.5C26.875 22.0027 26.6775 21.5258 26.3258 21.1742C25.9742 20.8226 25.4973 20.625 25 20.625H21.875V17.5C21.875 17.0027 22.0726 16.5258 22.4242 16.1742C22.7758 15.8226 23.2527 15.625 23.75 15.625H26.25C26.7473 15.625 27.2242 15.4275 27.5758 15.0758C27.9275 14.7242 28.125 14.2473 28.125 13.75C28.125 13.2527 27.9275 12.7758 27.5758 12.4242C27.2242 12.0726 26.7473 11.875 26.25 11.875H23.75C22.2582 11.875 20.8274 12.4676 19.7725 13.5225C18.7176 14.5774 18.125 16.0082 18.125 17.5V20.625H15C14.5027 20.625 14.0258 20.8226 13.6742 21.1742C13.3226 21.5258 13.125 22.0027 13.125 22.5C13.125 22.9973 13.3226 23.4742 13.6742 23.8258C14.0258 24.1775 14.5027 24.375 15 24.375H18.125V32.9844C14.8408 32.5103 11.858 30.8099 9.77695 28.2253C7.69591 25.6407 6.67108 22.3638 6.90871 19.0541C7.14633 15.7443 8.62879 12.6475 11.0577 10.3867C13.4866 8.12587 16.6817 6.869 20 6.869C23.3183 6.869 26.5134 8.12587 28.9423 10.3867C31.3712 12.6475 32.8537 15.7443 33.0913 19.0541C33.3289 22.3638 32.3041 25.6407 30.2231 28.2253C28.142 30.8099 25.1592 32.5103 21.875 32.9844Z" fill="white"/>
</svg>
