<svg width="40" height="40" viewBox="0 0 40 40" fill="none" xmlns="http://www.w3.org/2000/svg">
<path d="M13 3.33337H27C32.3334 3.33337 36.6667 7.66671 36.6667 13V27C36.6667 29.5638 35.6483 32.0226 33.8354 33.8354C32.0226 35.6483 29.5638 36.6667 27 36.6667H13C7.66671 36.6667 3.33337 32.3334 3.33337 27V13C3.33337 10.4363 4.35182 7.97753 6.16468 6.16468C7.97753 4.35182 10.4363 3.33337 13 3.33337ZM12.6667 6.66671C11.0754 6.66671 9.54928 7.29885 8.42407 8.42407C7.29885 9.54928 6.66671 11.0754 6.66671 12.6667V27.3334C6.66671 30.65 9.35004 33.3334 12.6667 33.3334H27.3334C28.9247 33.3334 30.4508 32.7012 31.576 31.576C32.7012 30.4508 33.3334 28.9247 33.3334 27.3334V12.6667C33.3334 9.35004 30.65 6.66671 27.3334 6.66671H12.6667ZM28.75 9.16671C29.3026 9.16671 29.8325 9.3862 30.2232 9.7769C30.6139 10.1676 30.8334 10.6975 30.8334 11.25C30.8334 11.8026 30.6139 12.3325 30.2232 12.7232C29.8325 13.1139 29.3026 13.3334 28.75 13.3334C28.1975 13.3334 27.6676 13.1139 27.2769 12.7232C26.8862 12.3325 26.6667 11.8026 26.6667 11.25C26.6667 10.6975 26.8862 10.1676 27.2769 9.7769C27.6676 9.3862 28.1975 9.16671 28.75 9.16671ZM20 11.6667C22.2102 11.6667 24.3298 12.5447 25.8926 14.1075C27.4554 15.6703 28.3334 17.7899 28.3334 20C28.3334 22.2102 27.4554 24.3298 25.8926 25.8926C24.3298 27.4554 22.2102 28.3334 20 28.3334C17.7899 28.3334 15.6703 27.4554 14.1075 25.8926C12.5447 24.3298 11.6667 22.2102 11.6667 20C11.6667 17.7899 12.5447 15.6703 14.1075 14.1075C15.6703 12.5447 17.7899 11.6667 20 11.6667ZM20 15C18.674 15 17.4022 15.5268 16.4645 16.4645C15.5268 17.4022 15 18.674 15 20C15 21.3261 15.5268 22.5979 16.4645 23.5356C17.4022 24.4733 18.674 25 20 25C21.3261 25 22.5979 24.4733 23.5356 23.5356C24.4733 22.5979 25 21.3261 25 20C25 18.674 24.4733 17.4022 23.5356 16.4645C22.5979 15.5268 21.3261 15 20 15Z" fill="white"/>
</svg>
