<svg width="139" height="92" viewBox="0 0 139 92" fill="none" xmlns="http://www.w3.org/2000/svg">
<path d="M27.1919 45.5135H66.6042C67.3722 45.5135 68.1088 45.8186 68.6518 46.3617C69.1949 46.9048 69.5 47.6414 69.5 48.4094V62.8885H24.2671V48.4094C24.2671 48.0266 24.3429 47.6477 24.4903 47.2945C24.6376 46.9412 24.8535 46.6207 25.1255 46.3514C25.3975 46.0821 25.7201 45.8694 26.0748 45.7256C26.4295 45.5818 26.8092 45.5097 27.1919 45.5135Z" stroke="white" stroke-width="4" stroke-linecap="round" stroke-linejoin="round"/>
<path d="M24.2671 48.4384V19.2483C24.2671 18.1654 24.6973 17.1269 25.463 16.3611C26.2287 15.5954 27.2673 15.1652 28.3502 15.1652H65.4169C66.4998 15.1652 67.5383 15.5954 68.3041 16.3611C69.0698 17.1269 69.5 18.1654 69.5 19.2483V48.4384M69.5 48.4384V19.2483C69.5 18.1654 69.9302 17.1269 70.6959 16.3611C71.4616 15.5954 72.5002 15.1652 73.5831 15.1652H110.65C111.733 15.1652 112.771 15.5954 113.537 16.3611C114.303 17.1269 114.733 18.1654 114.733 19.2483V48.4384M15.5217 31.6715H21.7767C22.4372 31.6715 23.0706 31.9339 23.5377 32.4009C24.0047 32.8679 24.2671 33.5014 24.2671 34.1619V63.1202H16.1298C15.7155 63.1204 15.3053 63.0375 14.9236 62.8763C14.5419 62.7152 14.1964 62.4792 13.9075 62.1822C13.6186 61.8852 13.3922 61.5333 13.2417 61.1473C13.0912 60.7612 13.0196 60.349 13.0312 59.9348V34.1619C13.0312 33.5014 13.2936 32.8679 13.7607 32.4009C14.2277 31.9339 14.8612 31.6715 15.5217 31.6715V31.6715ZM122.87 63.0623H114.733V34.104C114.733 33.4435 114.995 32.81 115.462 32.343C115.929 31.8759 116.563 31.6136 117.223 31.6136H123.478C124.139 31.6136 124.772 31.8759 125.239 32.343C125.706 32.81 125.969 33.4435 125.969 34.104V59.8769C125.969 60.6987 125.642 61.4868 125.061 62.0679C124.48 62.649 123.692 62.9754 122.87 62.9754V63.0623Z" stroke="white" stroke-width="4" stroke-linecap="round" stroke-linejoin="round"/>
<path d="M72.3958 45.5135H111.808C112.576 45.5135 113.313 45.8186 113.856 46.3617C114.399 46.9048 114.704 47.6414 114.704 48.4094V62.8885H69.5V48.4094C69.5 47.6414 69.8051 46.9048 70.3482 46.3617C70.8912 45.8186 71.6278 45.5135 72.3958 45.5135ZM24.2671 63.0623H33.1573V73.8638H24.2671V63.0623ZM105.843 63.0623H114.733V73.8638H105.843V63.0623Z" stroke="white" stroke-width="4" stroke-linecap="round" stroke-linejoin="round"/>
</svg>
