<svg width="40" height="40" viewBox="0 0 40 40" fill="none" xmlns="http://www.w3.org/2000/svg">
<path d="M32.6767 11.6583C32.55 11.1616 32.19 10.7866 31.7784 10.6716C31.05 10.4666 27.5 9.99996 20 9.99996C12.5 9.99996 8.95337 10.4666 8.21837 10.6716C7.81171 10.785 7.45171 11.16 7.32337 11.6583C7.14171 12.365 6.66671 15.3266 6.66671 20C6.66671 24.6733 7.14171 27.6333 7.32337 28.3433C7.45004 28.8383 7.81004 29.2133 8.22004 29.3266C8.95337 29.5333 12.5 30 20 30C27.5 30 31.0484 29.5333 31.7817 29.3283C32.1884 29.215 32.5484 28.84 32.6767 28.3416C32.8584 27.635 33.3334 24.6666 33.3334 20C33.3334 15.3333 32.8584 12.3666 32.6767 11.6583ZM35.905 10.83C36.6667 13.8 36.6667 20 36.6667 20C36.6667 20 36.6667 26.2 35.905 29.17C35.4817 30.8116 34.2434 32.1033 32.675 32.54C29.8267 33.3333 20 33.3333 20 33.3333C20 33.3333 10.1784 33.3333 7.32504 32.54C5.75004 32.0966 4.51337 30.8066 4.09504 29.17C3.33337 26.2 3.33337 20 3.33337 20C3.33337 20 3.33337 13.8 4.09504 10.83C4.51837 9.18829 5.75671 7.89663 7.32504 7.45996C10.1784 6.66663 20 6.66663 20 6.66663C20 6.66663 29.8267 6.66663 32.675 7.45996C34.25 7.90329 35.4867 9.19329 35.905 10.83ZM16.6667 25.8333V14.1666L26.6667 20L16.6667 25.8333Z" fill="white"/>
</svg>
