<svg width="80" height="80" viewBox="0 0 80 80" fill="none" xmlns="http://www.w3.org/2000/svg">
<path d="M5.43923 37.9801V66.6081H17.5592L18.1712 66.6801C29.4232 69.3041 36.8792 71.1961 40.5952 72.3681C45.5312 73.9241 47.3712 74.3041 50.7192 74.5281C53.2232 74.7001 56.0672 73.7361 57.3632 72.4161C58.0792 71.6881 58.6152 70.1921 58.8272 67.8721C58.8711 67.3856 59.0451 66.9198 59.3308 66.5236C59.6165 66.1274 60.0035 65.8154 60.4512 65.6201C61.4472 65.1881 62.2752 64.4841 62.9672 63.4601C63.6072 62.5241 64.0232 60.7801 64.0992 58.2561C64.1126 57.7921 64.2441 57.3391 64.4814 56.9402C64.7187 56.5412 65.0539 56.2093 65.4552 55.9761C67.7832 54.6281 68.9352 53.1081 69.1752 51.3241C69.4392 49.3521 68.7992 47.1321 67.1232 44.6041C66.73 44.0112 66.5835 43.2883 66.715 42.5891C66.8465 41.8899 67.2455 41.2696 67.8272 40.8601C69.4312 39.7321 70.3112 38.1641 70.5312 35.9401C70.8832 32.3961 68.6232 29.7761 63.5072 29.2521C58.9507 28.8014 54.3502 29.185 49.9312 30.3841C49.43 30.5151 48.9017 30.5002 48.4086 30.3411C47.9155 30.1821 47.4781 29.8856 47.1478 29.4864C46.8175 29.0872 46.6081 28.602 46.5443 28.0878C46.4804 27.5737 46.5647 27.0519 46.7872 26.5841C48.7872 22.3521 49.8992 18.8601 50.1592 16.1561C50.4992 12.5681 49.6712 9.96807 47.7352 7.82407C46.2672 6.20007 43.9192 5.27207 43.0392 5.46407C41.8792 5.71207 41.1232 6.38407 40.1392 8.73607C39.5592 10.1281 39.2792 11.3121 38.7992 14.0761C38.3392 16.7001 38.0872 17.8841 37.5632 19.4361C35.9832 24.1401 32.1072 29.0161 26.9032 32.3801C23.256 34.7349 19.3032 36.5788 15.1552 37.8601C14.8961 37.94 14.6264 37.9804 14.3552 37.9801H5.43923ZM5.27123 72.0601C3.97923 72.0961 2.81923 71.8081 1.84723 71.1281C0.607228 70.2601 0.0232279 68.8921 0.0112279 67.3161L0.0232279 38.0241C-0.112772 36.4641 0.347228 35.0321 1.43523 33.9681C2.45523 32.9681 3.78723 32.4961 5.19523 32.5281H13.9352C17.4707 31.4016 20.8413 29.8117 23.9592 27.8001C28.1512 25.0881 31.2392 21.2001 32.4192 17.6961C32.8232 16.4881 33.0392 15.4881 33.4472 13.1361C33.9992 9.98007 34.3432 8.51207 35.1352 6.62407C36.7752 2.69607 38.9272 0.776074 41.8952 0.132074C44.8152 -0.499927 49.0672 1.18407 51.7552 4.16007C54.7352 7.45607 56.0512 11.5801 55.5632 16.6761C55.3552 18.8681 54.7472 21.3201 53.7472 24.0521C57.1623 23.5544 60.6257 23.4791 64.0592 23.8281C72.0872 24.6481 76.5952 29.8761 75.9392 36.4841C75.6512 39.3321 74.6192 41.7521 72.8632 43.6521C74.3392 46.4961 74.9272 49.3081 74.5592 52.0521C74.1352 55.2121 72.3752 57.8441 69.4472 59.8881C69.2192 62.6601 68.5832 64.8721 67.4552 66.5281C66.5664 67.866 65.4068 69.0024 64.0512 69.8641C63.6192 72.6001 62.7112 74.7401 61.2272 76.2441C58.7672 78.7481 54.3712 80.2401 50.3552 79.9681C46.5432 79.7121 44.2872 79.2481 38.9672 77.5681C35.4592 76.4601 28.1952 74.6201 17.2472 72.0601H5.26723H5.27123ZM12.0752 36.7361C12.0742 36.3782 12.1438 36.0236 12.28 35.6927C12.4162 35.3618 12.6164 35.061 12.8691 34.8076C13.1217 34.5541 13.4219 34.3531 13.7525 34.2159C14.083 34.0787 14.4374 34.0081 14.7952 34.0081C15.1524 34.0091 15.5059 34.0805 15.8355 34.2182C16.1651 34.3558 16.4644 34.5571 16.7162 34.8104C16.9681 35.0637 17.1675 35.3642 17.3032 35.6946C17.439 36.025 17.5083 36.3789 17.5072 36.7361V67.4481C17.5078 67.8053 17.4379 68.1591 17.3017 68.4893C17.1655 68.8195 16.9656 69.1196 16.7134 69.3726C16.4612 69.6255 16.1616 69.8263 15.8318 69.9635C15.502 70.1007 15.1484 70.1715 14.7912 70.1721C14.434 70.1715 14.0804 70.1007 13.7506 69.9635C13.4208 69.8263 13.1213 69.6255 12.8691 69.3726C12.6169 69.1196 12.4169 68.8195 12.2807 68.4893C12.1445 68.1591 12.0747 67.8053 12.0752 67.4481V36.7361Z" fill="white"/>
</svg>
