<svg width="240" height="240" viewBox="0 0 240 240" fill="none" xmlns="http://www.w3.org/2000/svg">
<path d="M150 110V110.1M51.73 83.78C47.344 80.409 43.9754 75.891 41.9966 70.7253C40.0178 65.5596 39.5058 59.9473 40.5172 54.5088C41.5285 49.0702 44.0239 44.0173 47.7275 39.9083C51.4311 35.7993 56.1987 32.7943 61.5033 31.2255C66.808 29.6566 72.4431 29.585 77.7859 31.0186C83.1287 32.4521 87.9711 35.335 91.7779 39.3485C95.5847 43.3621 98.2077 48.3501 99.3569 53.7611C100.506 59.1722 100.137 64.7957 98.29 70.01" stroke="white" stroke-width="5" stroke-linecap="round" stroke-linejoin="round"/>
<path d="M160 40V78.03C172.376 85.1912 181.799 96.5245 186.58 110H199.99C202.642 110 205.186 111.054 207.061 112.929C208.936 114.804 209.99 117.348 209.99 120V140C209.99 142.652 208.936 145.196 207.061 147.071C205.186 148.946 202.642 150 199.99 150H186.57C183.21 159.5 177.5 168 169.99 174.73V195C169.99 198.978 168.41 202.794 165.597 205.607C162.784 208.42 158.968 210 154.99 210C151.012 210 147.196 208.42 144.383 205.607C141.57 202.794 139.99 198.978 139.99 195V189.17C136.685 189.724 133.341 190.001 129.99 190H89.99C86.6394 190.001 83.2945 189.724 79.99 189.17V195C79.99 198.978 78.4096 202.794 75.5966 205.607C72.7836 208.42 68.9682 210 64.99 210C61.0118 210 57.1964 208.42 54.3834 205.607C51.5704 202.794 49.99 198.978 49.99 195V175L50 174.73C40.9403 166.63 34.5536 155.97 31.6854 144.161C28.8172 132.352 29.6026 119.95 33.9376 108.597C38.2727 97.2438 45.953 87.4747 55.9622 80.5826C65.9713 73.6904 77.8374 70.0001 89.99 70H114.99L159.99 40H160Z" stroke="white" stroke-width="5" stroke-linecap="round" stroke-linejoin="round"/>
</svg>
