<svg width="40" height="40" viewBox="0 0 40 40" fill="none" xmlns="http://www.w3.org/2000/svg">
<g clip-path="url(#clip0_21_499)">
<path d="M28.3333 5C30.0437 5 31.6887 5.65739 32.928 6.83621C34.1673 8.01502 34.9061 9.62507 34.9917 11.3333L35 11.6667V28.3333C35 30.0437 34.3426 31.6887 33.1638 32.928C31.985 34.1673 30.3749 34.9061 28.6667 34.9917L28.3333 35H11.6667C9.95626 35 8.31129 34.3426 7.07198 33.1638C5.83267 31.985 5.09385 30.3749 5.00833 28.6667L5 28.3333V11.6667C5 9.95626 5.65739 8.31129 6.83621 7.07198C8.01502 5.83267 9.62507 5.09385 11.3333 5.00833L11.6667 5H28.3333ZM28.3333 8.33333H11.6667C10.8257 8.33307 10.0157 8.65068 9.39909 9.22249C8.78245 9.79431 8.40474 10.5781 8.34167 11.4167L8.33333 11.6667V28.3333C8.33307 29.1743 8.65068 29.9843 9.22249 30.6009C9.79431 31.2175 10.5781 31.5953 11.4167 31.6583L11.6667 31.6667H28.3333C29.1743 31.6669 29.9843 31.3493 30.6009 30.7775C31.2175 30.2057 31.5953 29.4219 31.6583 28.5833L31.6667 28.3333V11.6667C31.6669 10.8257 31.3493 10.0157 30.7775 9.39909C30.2057 8.78245 29.4219 8.40474 28.5833 8.34167L28.3333 8.33333ZM25.755 15.375L26.1133 14.9083C26.3587 14.5406 26.74 14.2853 27.1735 14.1987C27.6071 14.1122 28.0572 14.2013 28.425 14.4467C28.7928 14.692 29.048 15.0734 29.1346 15.5069C29.2212 15.9404 29.132 16.3906 28.8867 16.7583C28.1814 17.7816 27.3616 18.721 26.4433 19.5583C26.2055 19.7781 25.9609 19.9904 25.71 20.195C27.54 21.1683 29.0267 22.6617 29.8233 24.255C29.9293 24.4515 29.9947 24.6672 30.0157 24.8894C30.0366 25.1116 30.0128 25.3358 29.9455 25.5486C29.8782 25.7614 29.7688 25.9586 29.6239 26.1283C29.4789 26.2981 29.3014 26.437 29.1017 26.5368C28.9021 26.6366 28.6844 26.6953 28.4617 26.7094C28.2389 26.7235 28.0156 26.6927 27.8049 26.6189C27.5943 26.545 27.4007 26.4296 27.2355 26.2795C27.0703 26.1294 26.9369 25.9476 26.8433 25.745C26.0817 24.225 24.11 22.7383 22.0167 22.4333L21.6667 22.395V25C21.6667 25.442 21.4911 25.8659 21.1785 26.1785C20.8659 26.4911 20.442 26.6667 20 26.6667C14.1833 26.6667 10 21.8867 10 15.8333C10 15.3913 10.1756 14.9674 10.4882 14.6548C10.8007 14.3423 11.2246 14.1667 11.6667 14.1667C12.1087 14.1667 12.5326 14.3423 12.8452 14.6548C13.1577 14.9674 13.3333 15.3913 13.3333 15.8333C13.3333 18.9567 14.9633 21.9983 17.9917 23.0167L18.3333 23.1217V15.8333C18.3333 14.885 19.0967 14.2183 20 14.1667C20.3756 14.1664 20.7403 14.2929 21.035 14.5259C21.3296 14.7588 21.5369 15.0845 21.6233 15.45L21.6567 15.6383L21.6683 18.805C22.495 18.4617 23.3433 17.8833 24.1817 17.1083C24.7617 16.575 25.2717 15.9883 25.755 15.375Z" fill="black"/>
</g>
<defs>
<clipPath id="clip0_21_499">
<rect width="40" height="40" fill="white"/>
</clipPath>
</defs>
</svg>
