<svg width="40" height="40" viewBox="0 0 40 40" fill="none" xmlns="http://www.w3.org/2000/svg">
<path d="M32.6766 11.6584C32.5499 11.1617 32.1899 10.7867 31.7782 10.6717C31.0499 10.4667 27.4999 10.0001 19.9999 10.0001C12.4999 10.0001 8.95325 10.4667 8.21825 10.6717C7.81159 10.7851 7.45159 11.1601 7.32325 11.6584C7.14159 12.3651 6.66659 15.3267 6.66659 20.0001C6.66659 24.6734 7.14159 27.6334 7.32325 28.3434C7.44992 28.8384 7.80992 29.2134 8.21992 29.3267C8.95325 29.5334 12.4999 30.0001 19.9999 30.0001C27.4999 30.0001 31.0483 29.5334 31.7816 29.3284C32.1883 29.2151 32.5483 28.8401 32.6766 28.3417C32.8583 27.6351 33.3333 24.6667 33.3333 20.0001C33.3333 15.3334 32.8583 12.3667 32.6766 11.6584ZM35.9049 10.8301C36.6666 13.8001 36.6666 20.0001 36.6666 20.0001C36.6666 20.0001 36.6666 26.2001 35.9049 29.1701C35.4816 30.8117 34.2432 32.1034 32.6749 32.5401C29.8266 33.3334 19.9999 33.3334 19.9999 33.3334C19.9999 33.3334 10.1783 33.3334 7.32492 32.5401C5.74992 32.0967 4.51325 30.8067 4.09492 29.1701C3.33325 26.2001 3.33325 20.0001 3.33325 20.0001C3.33325 20.0001 3.33325 13.8001 4.09492 10.8301C4.51825 9.18841 5.75659 7.89675 7.32492 7.46008C10.1783 6.66675 19.9999 6.66675 19.9999 6.66675C19.9999 6.66675 29.8266 6.66675 32.6749 7.46008C34.2499 7.90341 35.4866 9.19341 35.9049 10.8301ZM16.6666 25.8334V14.1667L26.6666 20.0001L16.6666 25.8334Z" fill="black"/>
</svg>
